<svg width="0" height="0">
  <defs>
      <clipPath id="loginClip">
        <path d="m200,6.5c-107.1316,0 -193.76453,86.6329 -193.76453,193.5c0,106.867 86.63293,193.5 193.49953,193.5c106.868,0 193.5,-86.633 193.5,-193.5c0,-106.8671 -86.632,-193.5 -193.5,-193.5l0.265,0zm0,5c-104.1057,0 -188.5,84.3943 -188.5,188.5c0,104.106 84.3943,188.5 188.5,188.5c104.106,0 188.5,-84.394 188.5,-188.5c0,-104.1057 -84.394,-188.5 -188.5,-188.5z" id="svg_1" fill-rule="evenodd" clip-rule="evenodd"/>
        <path id="svg_2" d="m200,29.2355c-94.165,0 -170.5,76.3355 -170.5,170.4995c0,94.165 76.335,170.5 170.5,170.5c94.165,0 170.5,-76.335 170.5,-170.5c0,-94.164 -76.335,-170.4995 -170.5,-170.4995zm0,8.2645c-89.746,0 -162.5,72.754 -162.5,162.5c0,89.746 72.754,162.5 162.5,162.5c89.746,0 162.5,-72.754 162.5,-162.5c0,-89.746 -72.754,-162.5 -162.5,-162.5z"fill-rule="evenodd" clip-rule="evenodd"/>
     </clipPath>
  </defs>
</svg>